<?xml version="1.0" standalone="no"?>
<!DOCTYPE svg PUBLIC "-//W3C//DTD SVG 20010904//EN"
 "http://www.w3.org/TR/2001/REC-SVG-20010904/DTD/svg10.dtd">
<svg version="1.0" xmlns="http://www.w3.org/2000/svg"
 width="735.000000pt" height="559.000000pt" viewBox="0 0 735.000000 559.000000"
 preserveAspectRatio="xMidYMid meet">

<g transform="translate(0.000000,559.000000) scale(0.100000,-0.100000)"
fill="#000000" stroke="none">
<path d="M3560 5561 c-25 -10 -827 -408 -1783 -884 l-1738 -866 -20 -47 c-25
-55 -21 -109 9 -151 14 -20 111 -74 331 -187 l311 -159 0 -468 c0 -305 -3
-469 -10 -469 -21 0 -93 -76 -118 -124 -23 -44 -27 -63 -26 -136 0 -100 20
-148 91 -221 l45 -47 -156 -714 c-86 -392 -156 -730 -156 -750 0 -24 8 -46 24
-66 27 -31 396 -257 439 -267 35 -9 94 20 292 142 129 80 164 107 182 139 13
21 23 48 23 59 0 12 -43 217 -96 455 -53 239 -124 565 -159 723 l-63 289 40
36 c22 20 52 59 66 86 23 44 27 63 27 136 0 73 -4 92 -27 137 -15 28 -50 71
-78 95 l-50 43 0 384 c0 361 1 383 18 377 9 -4 224 -114 477 -246 407 -211
1196 -618 1897 -979 256 -132 299 -146 391 -123 24 7 568 283 1208 615 1305
677 1696 880 2074 1074 143 74 271 145 284 158 19 19 25 37 28 82 7 110 162
23 -1764 986 -951 475 -1754 874 -1786 886 -72 26 -164 27 -227 2z"/>
<path d="M1512 1836 l3 -641 28 -57 c45 -92 96 -128 403 -287 263 -136 481
-249 1234 -642 173 -90 334 -172 357 -181 63 -26 142 -33 204 -18 70 16 71 17
1089 545 935 486 927 481 980 590 l25 50 3 638 c1 350 0 637 -2 637 -3 0 -89
-44 -193 -99 -276 -145 -1399 -724 -1608 -829 -99 -50 -198 -95 -220 -101 -82
-21 -159 -23 -235 -7 -97 20 -233 88 -1643 821 l-428 223 3 -642z"/>
</g>
</svg>
